<svg width="181" height="53" viewBox="0 0 181 53" fill="none" xmlns="http://www.w3.org/2000/svg">
<g id="Group">
<path id="Vector" d="M179.312 46.3583C179.312 49.1294 177.021 51.3741 174.186 51.3741H6.44456C3.61163 51.3741 1.31213 49.1294 1.31213 46.3583V6.35873C1.31213 3.5889 3.61163 1.33636 6.44456 1.33636H174.185C177.021 1.33636 179.311 3.5889 179.311 6.35873L179.312 46.3583Z" fill="black"/>
<path id="path16" d="M173.645 1.39685C176.732 1.39685 179.244 3.84573 179.244 6.85523V45.8552C179.244 48.8647 176.732 51.3136 173.645 51.3136H6.9788C3.89213 51.3136 1.38047 48.8647 1.38047 45.8552V6.85523C1.38047 3.84573 3.89213 1.39685 6.9788 1.39685H173.645ZM173.645 0.355227H6.9788C3.3138 0.355227 0.312134 3.28185 0.312134 6.85523V45.8552C0.312134 49.4286 3.3138 52.3552 6.9788 52.3552H173.645C177.31 52.3552 180.312 49.4286 180.312 45.8552V6.85523C180.312 3.28185 177.31 0.355227 173.645 0.355227Z" fill="#A6A6A6"/>
<g id="Group_2">
<g id="Vector_2">
<path d="M39.8668 27.2341C39.8254 22.7492 43.6332 20.5673 43.8073 20.4657C41.6508 17.4001 38.3083 16.9813 37.1337 16.9479C34.3264 16.6599 31.6033 18.5857 30.1732 18.5857C28.7146 18.5857 26.5124 16.9757 24.139 17.023C21.0848 17.069 18.2275 18.7931 16.6604 21.4704C13.4264 26.9293 15.8384 34.9515 18.9368 39.364C20.4868 41.525 22.2979 43.9379 24.6685 43.853C26.9877 43.7598 27.854 42.4114 30.6528 42.4114C33.4258 42.4114 34.2393 43.853 36.657 43.7988C39.1461 43.7598 40.7132 41.628 42.2089 39.4475C44 36.9706 44.7193 34.5312 44.7479 34.406C44.6893 34.3865 39.9139 32.6095 39.8668 27.2341Z" fill="white"/>
<path d="M35.2998 14.0452C36.5471 12.5242 37.4006 10.455 37.1637 8.35522C35.3583 8.43315 33.1004 9.57281 31.8002 11.0604C30.6499 12.3712 29.6223 14.5197 29.8878 16.5402C31.9159 16.6877 33.9981 15.5425 35.2998 14.0452Z" fill="white"/>
</g>
</g>
<g id="Group_3">
<path id="Vector_3" d="M72.1769 40.497H69.1489L67.4902 35.4153H61.7249L60.1449 40.497H57.1969L62.9089 23.1966H66.4369L72.1769 40.497ZM66.9902 33.2833L65.4902 28.7658C65.3316 28.3043 65.0342 27.2175 64.5956 25.5067H64.5422C64.3676 26.2425 64.0862 27.3293 63.6996 28.7658L62.2262 33.2833H66.9902Z" fill="white"/>
<path id="Vector_4" d="M86.8662 34.1062C86.8662 36.2278 86.2782 37.9048 85.1022 39.1359C84.0489 40.2318 82.7409 40.7791 81.1796 40.7791C79.4942 40.7791 78.2836 40.1889 77.5462 39.0085H77.4929V45.58H74.6502V32.1289C74.6502 30.7951 74.6142 29.4262 74.5449 28.0222H77.0449L77.2036 29.9995H77.2569C78.2049 28.5097 79.6436 27.7661 81.5742 27.7661C83.0836 27.7661 84.3436 28.3472 85.3516 29.5107C86.3622 30.6755 86.8662 32.2069 86.8662 34.1062ZM83.9702 34.2076C83.9702 32.9934 83.6902 31.9924 83.1276 31.2046C82.5129 30.383 81.6876 29.9722 80.6529 29.9722C79.9516 29.9722 79.3142 30.201 78.7449 30.6521C78.1742 31.1071 77.8009 31.7012 77.6262 32.437C77.5382 32.7802 77.4942 33.061 77.4942 33.282V35.362C77.4942 36.2694 77.7796 37.0351 78.3502 37.6604C78.9209 38.2857 79.6622 38.5977 80.5742 38.5977C81.6449 38.5977 82.4782 38.1947 83.0742 37.3913C83.6716 36.5866 83.9702 35.5258 83.9702 34.2076Z" fill="white"/>
<path id="Vector_5" d="M101.582 34.1062C101.582 36.2278 100.994 37.9048 99.8169 39.1359C98.7649 40.2318 97.4569 40.7791 95.8956 40.7791C94.2102 40.7791 92.9996 40.1889 92.2636 39.0085H92.2102V45.58H89.3676V32.1289C89.3676 30.7951 89.3316 29.4262 89.2622 28.0222H91.7622L91.9209 29.9995H91.9742C92.9209 28.5097 94.3596 27.7661 96.2916 27.7661C97.7996 27.7661 99.0596 28.3472 100.07 29.5107C101.077 30.6755 101.582 32.2069 101.582 34.1062ZM98.6862 34.2076C98.6862 32.9934 98.4049 31.9924 97.8422 31.2046C97.2276 30.383 96.4049 29.9722 95.3689 29.9722C94.6662 29.9722 94.0302 30.201 93.4596 30.6521C92.8889 31.1071 92.5169 31.7012 92.3422 32.437C92.2556 32.7802 92.2102 33.061 92.2102 33.282V35.362C92.2102 36.2694 92.4956 37.0351 93.0636 37.6604C93.6342 38.2844 94.3756 38.5977 95.2902 38.5977C96.3609 38.5977 97.1942 38.1947 97.7902 37.3913C98.3876 36.5866 98.6862 35.5258 98.6862 34.2076Z" fill="white"/>
<path id="Vector_6" d="M118.036 35.6454C118.036 37.117 117.512 38.3143 116.46 39.2386C115.304 40.2487 113.694 40.7531 111.626 40.7531C109.717 40.7531 108.186 40.3943 107.028 39.6754L107.686 37.3653C108.934 38.1011 110.304 38.4703 111.796 38.4703C112.866 38.4703 113.7 38.2337 114.298 37.7631C114.894 37.2925 115.192 36.6607 115.192 35.8729C115.192 35.1709 114.946 34.5794 114.454 34.0997C113.965 33.62 113.148 33.1741 112.006 32.762C108.9 31.6323 107.348 29.9774 107.348 27.8012C107.348 26.379 107.892 25.2129 108.981 24.3055C110.066 23.3968 111.514 22.9431 113.325 22.9431C114.94 22.9431 116.281 23.2174 117.352 23.7647L116.641 26.0241C115.641 25.4937 114.51 25.2285 113.245 25.2285C112.245 25.2285 111.464 25.469 110.904 25.9474C110.43 26.3751 110.193 26.8964 110.193 27.5139C110.193 28.1977 110.464 28.7632 111.008 29.2078C111.481 29.6186 112.341 30.0632 113.589 30.5429C115.116 31.1422 116.237 31.8429 116.958 32.6463C117.677 33.4471 118.036 34.4494 118.036 35.6454Z" fill="white"/>
<path id="Vector_7" d="M127.434 30.1022H124.301V36.1589C124.301 37.6994 124.853 38.469 125.96 38.469C126.468 38.469 126.889 38.4261 127.222 38.3403L127.301 40.445C126.741 40.6491 126.004 40.7518 125.09 40.7518C123.968 40.7518 123.09 40.4177 122.457 39.7508C121.826 39.0826 121.509 37.962 121.509 36.3877V30.0996H119.642V28.0196H121.509V25.7355L124.301 24.9139V28.0196H127.434V30.1022Z" fill="white"/>
<path id="Vector_8" d="M141.572 34.1569C141.572 36.0744 141.009 37.6487 139.886 38.8798C138.709 40.1473 137.146 40.7791 135.198 40.7791C133.321 40.7791 131.826 40.172 130.712 38.9578C129.597 37.7436 129.04 36.2109 129.04 34.3636C129.04 32.4305 129.613 30.8471 130.764 29.616C131.912 28.3836 133.461 27.7674 135.409 27.7674C137.286 27.7674 138.797 28.3745 139.937 29.59C141.028 30.7691 141.572 32.2914 141.572 34.1569ZM138.622 34.2466C138.622 33.0961 138.37 32.1094 137.86 31.2865C137.264 30.2907 136.412 29.7941 135.308 29.7941C134.165 29.7941 133.297 30.292 132.701 31.2865C132.19 32.1107 131.938 33.113 131.938 34.2986C131.938 35.4491 132.19 36.4358 132.701 37.2574C133.316 38.2532 134.174 38.7498 135.282 38.7498C136.368 38.7498 137.22 38.2428 137.834 37.2314C138.358 36.3929 138.622 35.3958 138.622 34.2466Z" fill="white"/>
<path id="Vector_9" d="M150.812 30.4597C150.53 30.409 150.23 30.383 149.916 30.383C148.916 30.383 148.142 30.7509 147.598 31.488C147.125 32.138 146.888 32.9596 146.888 33.9515V40.497H144.046L144.073 31.9508C144.073 30.513 144.037 29.2039 143.966 28.0235H146.442L146.546 30.4103H146.625C146.925 29.59 147.398 28.9296 148.046 28.4343C148.68 27.9884 149.364 27.7661 150.101 27.7661C150.364 27.7661 150.601 27.7843 150.812 27.8168V30.4597Z" fill="white"/>
<path id="Vector_10" d="M163.525 33.6694C163.525 34.166 163.492 34.5846 163.421 34.9265H154.893C154.926 36.1589 155.338 37.1014 156.13 37.7514C156.849 38.3325 157.778 38.6237 158.92 38.6237C160.182 38.6237 161.334 38.4274 162.37 38.0335L162.816 39.9575C161.605 40.4723 160.176 40.7284 158.526 40.7284C156.542 40.7284 154.985 40.159 153.852 39.0215C152.721 37.884 152.154 36.3565 152.154 34.4403C152.154 32.5592 152.681 30.9927 153.736 29.7434C154.84 28.4096 156.332 27.7427 158.209 27.7427C160.053 27.7427 161.449 28.4096 162.397 29.7434C163.148 30.8029 163.525 32.1133 163.525 33.6694ZM160.814 32.9505C160.833 32.1289 160.648 31.4191 160.262 30.8198C159.77 30.0489 159.014 29.6641 157.997 29.6641C157.068 29.6641 156.312 30.0398 155.734 30.7938C155.261 31.3931 154.98 32.112 154.893 32.9492H160.814V32.9505Z" fill="white"/>
</g>
<g id="Group_4">
<g id="Group_5">
<path id="Vector_11" d="M66.0497 13.3676C66.0497 14.8977 65.5791 16.0495 64.6391 16.823C63.7684 17.5367 62.5311 17.8942 60.9284 17.8942C60.1337 17.8942 59.4537 17.8604 58.8844 17.7928V9.43248C59.6271 9.31548 60.4271 9.25568 61.2911 9.25568C62.8177 9.25568 63.9684 9.57938 64.7444 10.2268C65.6137 10.9587 66.0497 12.0052 66.0497 13.3676ZM64.5764 13.4053C64.5764 12.4134 64.3071 11.6529 63.7684 11.1225C63.2297 10.5934 62.4431 10.3282 61.4071 10.3282C60.9671 10.3282 60.5924 10.3568 60.2817 10.4166V16.7723C60.4537 16.7983 60.7684 16.81 61.2257 16.81C62.2951 16.81 63.1204 16.5201 63.7017 15.9403C64.2831 15.3605 64.5764 14.5155 64.5764 13.4053Z" fill="white"/>
<path id="Vector_12" d="M73.8618 14.704C73.8618 15.6465 73.5858 16.4187 73.0338 17.0245C72.4551 17.6472 71.6884 17.9579 70.7311 17.9579C69.8084 17.9579 69.0738 17.6602 68.5258 17.0622C67.9791 16.4655 67.7057 15.7128 67.7057 14.8054C67.7057 13.8564 67.9871 13.0777 68.5524 12.4732C69.1177 11.8687 69.8778 11.5658 70.8351 11.5658C71.7578 11.5658 72.4991 11.8635 73.0604 12.4602C73.5938 13.04 73.8618 13.7888 73.8618 14.704ZM72.4124 14.7482C72.4124 14.1827 72.2871 13.6978 72.0378 13.2935C71.7444 12.8047 71.3271 12.5603 70.7844 12.5603C70.2231 12.5603 69.7964 12.8047 69.5031 13.2935C69.2524 13.6978 69.1284 14.1905 69.1284 14.7729C69.1284 15.3384 69.2538 15.8233 69.5031 16.2276C69.8058 16.7164 70.2271 16.9608 70.7711 16.9608C71.3044 16.9608 71.7231 16.7125 72.0244 16.2146C72.2831 15.8025 72.4124 15.3137 72.4124 14.7482Z" fill="white"/>
<path id="Vector_13" d="M84.3364 11.6906L82.3697 17.8188H81.0897L80.2751 15.1577C80.0684 14.4934 79.9004 13.833 79.7697 13.1778H79.7444C79.6231 13.8512 79.4551 14.5103 79.2391 15.1577L78.3737 17.8188H77.0791L75.2297 11.6906H76.6657L77.3764 14.6039C77.5484 15.2929 77.6897 15.9494 77.8031 16.5708H77.8284C77.9324 16.0586 78.1044 15.406 78.3471 14.6169L79.2391 11.6919H80.3777L81.2324 14.5545C81.4391 15.2526 81.6071 15.9247 81.7364 16.5721H81.7751C81.8697 15.9416 82.0124 15.2695 82.2017 14.5545L82.9644 11.6919H84.3364V11.6906Z" fill="white"/>
<path id="Vector_14" d="M91.5804 17.8188H90.1831V14.3088C90.1831 13.2272 89.7617 12.6864 88.9164 12.6864C88.5017 12.6864 88.1671 12.8346 87.9071 13.1323C87.6497 13.43 87.5191 13.781 87.5191 14.1827V17.8175H86.1217V13.4417C86.1217 12.9035 86.1044 12.3198 86.0711 11.688H87.2991L87.3644 12.6461H87.4031C87.5657 12.3484 87.8084 12.1027 88.1271 11.9064C88.5057 11.6776 88.9297 11.5619 89.3937 11.5619C89.9804 11.5619 90.4684 11.7465 90.8564 12.117C91.3391 12.5707 91.5804 13.248 91.5804 14.1476V17.8188Z" fill="white"/>
<path id="Vector_15" d="M95.4337 17.8188H94.0378V8.87866H95.4337V17.8188Z" fill="white"/>
<path id="Vector_16" d="M103.66 14.704C103.66 15.6465 103.384 16.4187 102.832 17.0245C102.254 17.6472 101.486 17.9579 100.53 17.9579C99.6057 17.9579 98.8711 17.6602 98.3244 17.0622C97.7777 16.4655 97.5044 15.7128 97.5044 14.8054C97.5044 13.8564 97.7857 13.0777 98.3511 12.4732C98.9164 11.8687 99.6764 11.5658 100.632 11.5658C101.556 11.5658 102.296 11.8635 102.859 12.4602C103.392 13.04 103.66 13.7888 103.66 14.704ZM102.21 14.7482C102.21 14.1827 102.084 13.6978 101.835 13.2935C101.543 12.8047 101.124 12.5603 100.583 12.5603C100.02 12.5603 99.5937 12.8047 99.3017 13.2935C99.0511 13.6978 98.9271 14.1905 98.9271 14.7729C98.9271 15.3384 99.0524 15.8233 99.3017 16.2276C99.6044 16.7164 100.026 16.9608 100.57 16.9608C101.103 16.9608 101.52 16.7125 101.822 16.2146C102.082 15.8025 102.21 15.3137 102.21 14.7482Z" fill="white"/>
<path id="Vector_17" d="M110.423 17.8188H109.168L109.064 17.1129H109.026C108.596 17.6758 107.984 17.9579 107.19 17.9579C106.596 17.9579 106.116 17.772 105.755 17.4028C105.427 17.0674 105.263 16.6501 105.263 16.1548C105.263 15.406 105.583 14.8353 106.227 14.4401C106.87 14.0449 107.774 13.8512 108.938 13.8603V13.7459C108.938 12.9386 108.503 12.5356 107.632 12.5356C107.012 12.5356 106.466 12.6877 105.994 12.9893L105.71 12.0949C106.294 11.7426 107.015 11.5658 107.866 11.5658C109.508 11.5658 110.332 12.4108 110.332 14.1008V16.3576C110.332 16.9699 110.363 17.4574 110.423 17.8188ZM108.972 15.7128V14.7677C107.431 14.7417 106.66 15.1538 106.66 16.0027C106.66 16.3225 106.748 16.5617 106.928 16.7216C107.108 16.8815 107.338 16.9608 107.611 16.9608C107.918 16.9608 108.204 16.8659 108.466 16.6774C108.728 16.4876 108.89 16.2471 108.95 15.952C108.964 15.8857 108.972 15.8051 108.972 15.7128Z" fill="white"/>
<path id="Vector_18" d="M118.363 17.8188H117.123L117.058 16.8347H117.019C116.623 17.5835 115.948 17.9579 115 17.9579C114.243 17.9579 113.612 17.668 113.112 17.0882C112.612 16.5084 112.363 15.7557 112.363 14.8314C112.363 13.8395 112.634 13.0361 113.178 12.4225C113.704 11.8505 114.35 11.5645 115.118 11.5645C115.962 11.5645 116.552 11.8414 116.888 12.3965H116.915V8.87866H118.314V16.1678C118.314 16.7645 118.33 17.3144 118.363 17.8188ZM116.915 15.2344V14.2126C116.915 14.0358 116.902 13.8928 116.876 13.7836C116.798 13.456 116.628 13.1804 116.371 12.9581C116.111 12.7358 115.798 12.624 115.436 12.624C114.915 12.624 114.507 12.8255 114.207 13.2298C113.91 13.6341 113.759 14.1502 113.759 14.7807C113.759 15.3865 113.902 15.8779 114.188 16.2562C114.491 16.6592 114.899 16.8607 115.41 16.8607C115.868 16.8607 116.235 16.693 116.514 16.3563C116.783 16.0456 116.915 15.6712 116.915 15.2344Z" fill="white"/>
<path id="Vector_19" d="M130.314 14.704C130.314 15.6465 130.038 16.4187 129.486 17.0245C128.907 17.6472 128.142 17.9579 127.183 17.9579C126.262 17.9579 125.527 17.6602 124.978 17.0622C124.431 16.4655 124.158 15.7128 124.158 14.8054C124.158 13.8564 124.439 13.0777 125.004 12.4732C125.57 11.8687 126.33 11.5658 127.288 11.5658C128.21 11.5658 128.952 11.8635 129.512 12.4602C130.046 13.04 130.314 13.7888 130.314 14.704ZM128.866 14.7482C128.866 14.1827 128.74 13.6978 128.491 13.2935C128.196 12.8047 127.78 12.5603 127.236 12.5603C126.676 12.5603 126.25 12.8047 125.955 13.2935C125.704 13.6978 125.58 14.1905 125.58 14.7729C125.58 15.3384 125.706 15.8233 125.955 16.2276C126.258 16.7164 126.679 16.9608 127.223 16.9608C127.756 16.9608 128.176 16.7125 128.478 16.2146C128.735 15.8025 128.866 15.3137 128.866 14.7482Z" fill="white"/>
<path id="Vector_20" d="M137.827 17.8188H136.431V14.3088C136.431 13.2272 136.01 12.6864 135.163 12.6864C134.748 12.6864 134.414 12.8346 134.155 13.1323C133.896 13.43 133.767 13.781 133.767 14.1827V17.8175H132.368V13.4417C132.368 12.9035 132.352 12.3198 132.319 11.688H133.546L133.611 12.6461H133.65C133.814 12.3484 134.056 12.1027 134.374 11.9064C134.754 11.6776 135.176 11.5619 135.642 11.5619C136.227 11.5619 136.715 11.7465 137.103 12.117C137.587 12.5707 137.827 13.248 137.827 14.1476V17.8188Z" fill="white"/>
<path id="Vector_21" d="M147.231 12.7111H145.692V15.6881C145.692 16.4447 145.966 16.823 146.507 16.823C146.758 16.823 146.966 16.8022 147.13 16.7593L147.166 17.7928C146.89 17.8942 146.527 17.9449 146.08 17.9449C145.528 17.9449 145.099 17.7811 144.788 17.4535C144.476 17.1259 144.322 16.5747 144.322 15.8012V12.7111H143.403V11.6906H144.322V10.5674L145.691 10.1644V11.6893H147.23V12.7111H147.231Z" fill="white"/>
<path id="Vector_22" d="M154.628 17.8188H153.23V14.3348C153.23 13.2363 152.808 12.6864 151.964 12.6864C151.316 12.6864 150.874 13.0049 150.631 13.6419C150.59 13.7758 150.566 13.9396 150.566 14.132V17.8175H149.17V8.87866H150.566V12.572H150.592C151.032 11.8999 151.663 11.5645 152.48 11.5645C153.059 11.5645 153.538 11.7491 153.918 12.1196C154.391 12.5811 154.628 13.2675 154.628 14.1749V17.8188Z" fill="white"/>
<path id="Vector_23" d="M162.259 14.4647C162.259 14.7091 162.24 14.9145 162.207 15.0822H158.016C158.035 15.688 158.235 16.1495 158.623 16.4693C158.978 16.7553 159.435 16.8983 159.995 16.8983C160.615 16.8983 161.18 16.8021 161.69 16.6084L161.908 17.5548C161.312 17.807 160.611 17.9331 159.799 17.9331C158.826 17.9331 158.059 17.6536 157.504 17.0946C156.947 16.5356 156.671 15.7855 156.671 14.8443C156.671 13.92 156.928 13.1504 157.447 12.5368C157.988 11.8816 158.72 11.554 159.644 11.554C160.548 11.554 161.235 11.8816 161.699 12.5368C162.074 13.0568 162.259 13.7003 162.259 14.4647ZM160.926 14.1124C160.936 13.7081 160.844 13.3597 160.655 13.0659C160.412 12.6876 160.043 12.4978 159.543 12.4978C159.087 12.4978 158.715 12.6824 158.431 13.0529C158.199 13.348 158.062 13.7003 158.016 14.1124H160.926Z" fill="white"/>
</g>
</g>
</g>
</svg>

