<svg width="181" height="53" viewBox="0 0 181 53" fill="none" xmlns="http://www.w3.org/2000/svg">
<g clip-path="url(#clip0_1215_8886)">
<path d="M173.645 52.3552H6.9788C3.3138 52.3552 0.312134 49.4286 0.312134 45.8552V6.85523C0.312134 3.28185 3.3138 0.355227 6.9788 0.355227H173.645C177.31 0.355227 180.312 3.28185 180.312 6.85523V45.8552C180.312 49.4286 177.31 52.3552 173.645 52.3552Z" fill="#191919"/>
<path d="M58.8963 17.6733C58.222 17.6733 57.6212 17.52 57.0938 17.2133C56.5731 16.9 56.1625 16.4733 55.8621 15.9333C55.5684 15.3867 55.4215 14.76 55.4215 14.0533C55.4215 13.3467 55.5684 12.7233 55.8621 12.1833C56.1625 11.6367 56.5731 11.21 57.0938 10.9033C57.6145 10.59 58.212 10.4333 58.8863 10.4333C59.3402 10.4333 59.7675 10.5167 60.168 10.6833C60.5686 10.8433 60.9224 11.0667 61.2295 11.3533C61.5433 11.64 61.7836 11.9733 61.9505 12.3533L60.889 12.7833C60.7689 12.53 60.6053 12.3067 60.3983 12.1133C60.1981 11.9133 59.9678 11.76 59.7074 11.6533C59.447 11.5467 59.1733 11.4933 58.8863 11.4933C58.4457 11.4933 58.0518 11.6033 57.7046 11.8233C57.3642 12.0433 57.0938 12.3467 56.8935 12.7333C56.6999 13.1133 56.6031 13.5533 56.6031 14.0533C56.6031 14.5533 56.6999 14.9967 56.8935 15.3833C57.0938 15.77 57.3675 16.0733 57.7147 16.2933C58.0685 16.5133 58.469 16.6233 58.9163 16.6233C59.21 16.6233 59.4838 16.5667 59.7374 16.4533C59.9978 16.3333 60.2281 16.17 60.4284 15.9633C60.6353 15.7567 60.7989 15.5167 60.9191 15.2434L61.9805 15.6733C61.8136 16.0667 61.5766 16.4167 61.2695 16.7233C60.9625 17.0233 60.6053 17.2567 60.1981 17.4233C59.7908 17.59 59.3569 17.6733 58.8963 17.6733Z" fill="#A6A6A6"/>
<path d="M66.2129 17.6733C65.5186 17.6733 64.9044 17.52 64.3704 17.2133C63.8363 16.9067 63.4157 16.48 63.1086 15.9333C62.8082 15.3867 62.658 14.76 62.658 14.0533C62.658 13.3467 62.8082 12.7233 63.1086 12.1833C63.4157 11.6367 63.833 11.21 64.3604 10.9033C64.8877 10.59 65.4953 10.4333 66.1829 10.4333C66.8771 10.4333 67.488 10.59 68.0154 10.9033C68.5494 11.21 68.9634 11.6367 69.2571 12.1833C69.5575 12.7233 69.7077 13.3467 69.7077 14.0533C69.7077 14.76 69.5575 15.3867 69.2571 15.9333C68.9634 16.48 68.5528 16.9067 68.0254 17.2133C67.5047 17.52 66.9005 17.6733 66.2129 17.6733ZM66.2129 16.6133C66.6669 16.6133 67.0674 16.5033 67.4146 16.2833C67.7617 16.0633 68.0321 15.7633 68.2257 15.3833C68.4259 14.9967 68.5261 14.5533 68.5261 14.0533C68.5261 13.56 68.4259 13.12 68.2257 12.7333C68.0254 12.3467 67.7483 12.0467 67.3945 11.8333C67.0474 11.6133 66.6435 11.5033 66.1829 11.5033C65.7289 11.5033 65.325 11.6133 64.9712 11.8333C64.6241 12.0467 64.347 12.3467 64.1401 12.7333C63.9398 13.1133 63.8396 13.5533 63.8396 14.0533C63.8396 14.5533 63.9398 14.9967 64.1401 15.3833C64.347 15.7633 64.6274 16.0633 64.9812 16.2833C65.3417 16.5033 65.7523 16.6133 66.2129 16.6133Z" fill="#A6A6A6"/>
<path d="M74.3762 15.7533L71.0316 10.8533L71.5523 10.6633L72.1831 10.5533L74.967 14.6533L74.3762 15.7533ZM70.9414 17.5533V10.5533H72.103V17.5533H70.9414ZM74.3762 15.7533L73.8054 14.6533L76.5692 10.5533L77.2101 10.6633L77.7208 10.8333L74.3762 15.7533ZM76.6593 17.5533V10.5533H77.8209V17.5533H76.6593Z" fill="#A6A6A6"/>
<path d="M79.4786 17.5533V10.5533H80.6402V17.5533H79.4786Z" fill="#A6A6A6"/>
<path d="M87.2315 17.5533L82.5751 11.1933L83.5064 10.5533L88.1528 16.8933L87.2315 17.5533ZM82.3047 17.5533V10.5533H83.5064L83.4663 11.5533V17.5533H82.3047ZM87.2315 17.5533V10.5533H88.3931V17.5533H87.2315Z" fill="#A6A6A6"/>
<path d="M93.2739 17.6733C92.5663 17.6733 91.9354 17.52 91.3813 17.2133C90.8339 16.9 90.4033 16.4733 90.0896 15.9333C89.7758 15.3867 89.6189 14.7633 89.6189 14.0633C89.6189 13.35 89.7758 12.7233 90.0896 12.1833C90.4033 11.6367 90.8339 11.21 91.3813 10.9033C91.9354 10.59 92.5663 10.4333 93.2739 10.4333C93.6812 10.4333 94.0617 10.4967 94.4155 10.6233C94.776 10.75 95.0998 10.9233 95.3868 11.1433C95.6739 11.3567 95.9076 11.6067 96.0878 11.8933L95.1465 12.4933C95.0197 12.3 94.8561 12.1267 94.6558 11.9733C94.4556 11.82 94.2352 11.7033 93.9949 11.6233C93.7613 11.5367 93.5209 11.4933 93.2739 11.4933C92.7933 11.4933 92.366 11.6033 91.9922 11.8233C91.625 12.0433 91.3346 12.3467 91.121 12.7333C90.9073 13.1133 90.8005 13.5567 90.8005 14.0633C90.8005 14.5567 90.904 14.9967 91.111 15.3833C91.3246 15.77 91.6183 16.0733 91.9922 16.2933C92.3727 16.5133 92.81 16.6233 93.304 16.6233C93.6912 16.6233 94.0383 16.5433 94.3454 16.3833C94.6525 16.2233 94.8928 16 95.0664 15.7133C95.2466 15.4267 95.3368 15.0967 95.3368 14.7233L96.4483 14.5833C96.4483 15.2167 96.3114 15.7667 96.0377 16.2333C95.7707 16.6933 95.3968 17.05 94.9162 17.3033C94.4422 17.55 93.8948 17.6733 93.2739 17.6733ZM93.6545 14.8133V13.8733H96.4483V14.6533L95.8274 14.8133H93.6545Z" fill="#A6A6A6"/>
<path d="M102.288 17.6733C101.921 17.6733 101.584 17.63 101.277 17.5433C100.977 17.4567 100.71 17.3367 100.476 17.1833C100.249 17.03 100.059 16.86 99.9052 16.6733C99.7583 16.48 99.6548 16.28 99.5947 16.0733L100.736 15.7233C100.823 15.97 100.993 16.1867 101.247 16.3733C101.501 16.56 101.814 16.6567 102.188 16.6633C102.622 16.6633 102.966 16.5733 103.22 16.3933C103.473 16.2133 103.6 15.9767 103.6 15.6833C103.6 15.4167 103.493 15.2 103.28 15.0333C103.066 14.86 102.779 14.7267 102.419 14.6333L101.557 14.4133C101.23 14.3267 100.933 14.2 100.666 14.0333C100.406 13.8667 100.199 13.6567 100.045 13.4033C99.8985 13.15 99.825 12.85 99.825 12.5033C99.825 11.85 100.039 11.3433 100.466 10.9833C100.893 10.6167 101.504 10.4333 102.298 10.4333C102.746 10.4333 103.136 10.5033 103.47 10.6433C103.811 10.7767 104.091 10.9633 104.311 11.2033C104.532 11.4367 104.695 11.7033 104.802 12.0033L103.68 12.3633C103.58 12.0967 103.407 11.8767 103.16 11.7033C102.913 11.53 102.606 11.4433 102.238 11.4433C101.858 11.4433 101.557 11.5333 101.337 11.7133C101.123 11.8933 101.017 12.1433 101.017 12.4633C101.017 12.7233 101.1 12.9267 101.267 13.0733C101.441 13.2133 101.674 13.32 101.968 13.3933L102.829 13.6033C103.457 13.7567 103.944 14.02 104.291 14.3933C104.638 14.7667 104.812 15.18 104.812 15.6333C104.812 16.0333 104.715 16.3867 104.521 16.6933C104.328 17 104.041 17.24 103.66 17.4133C103.286 17.5867 102.829 17.6733 102.288 17.6733Z" fill="#A6A6A6"/>
<path d="M109.211 17.6733C108.517 17.6733 107.903 17.52 107.369 17.2133C106.835 16.9067 106.414 16.48 106.107 15.9333C105.807 15.3867 105.657 14.76 105.657 14.0533C105.657 13.3467 105.807 12.7233 106.107 12.1833C106.414 11.6367 106.832 11.21 107.359 10.9033C107.886 10.59 108.494 10.4333 109.181 10.4333C109.876 10.4333 110.487 10.59 111.014 10.9033C111.548 11.21 111.962 11.6367 112.256 12.1833C112.556 12.7233 112.706 13.3467 112.706 14.0533C112.706 14.76 112.556 15.3867 112.256 15.9333C111.962 16.48 111.551 16.9067 111.024 17.2133C110.503 17.52 109.899 17.6733 109.211 17.6733ZM109.211 16.6133C109.665 16.6133 110.066 16.5033 110.413 16.2833C110.76 16.0633 111.031 15.7633 111.224 15.3833C111.425 14.9967 111.525 14.5533 111.525 14.0533C111.525 13.56 111.425 13.12 111.224 12.7333C111.024 12.3467 110.747 12.0467 110.393 11.8333C110.046 11.6133 109.642 11.5033 109.181 11.5033C108.727 11.5033 108.324 11.6133 107.97 11.8333C107.623 12.0467 107.346 12.3467 107.139 12.7333C106.938 13.1133 106.838 13.5533 106.838 14.0533C106.838 14.5533 106.938 14.9967 107.139 15.3833C107.346 15.7633 107.626 16.0633 107.98 16.2833C108.34 16.5033 108.751 16.6133 109.211 16.6133Z" fill="#A6A6A6"/>
<path d="M117.054 17.6733C116.36 17.6733 115.746 17.52 115.212 17.2133C114.678 16.9067 114.257 16.48 113.95 15.9333C113.65 15.3867 113.499 14.76 113.499 14.0533C113.499 13.3467 113.65 12.7233 113.95 12.1833C114.257 11.6367 114.674 11.21 115.202 10.9033C115.729 10.59 116.337 10.4333 117.024 10.4333C117.719 10.4333 118.329 10.59 118.857 10.9033C119.391 11.21 119.805 11.6367 120.098 12.1833C120.399 12.7233 120.549 13.3467 120.549 14.0533C120.549 14.76 120.399 15.3867 120.098 15.9333C119.805 16.48 119.394 16.9067 118.867 17.2133C118.346 17.52 117.742 17.6733 117.054 17.6733ZM117.054 16.6133C117.508 16.6133 117.909 16.5033 118.256 16.2833C118.603 16.0633 118.873 15.7633 119.067 15.3833C119.267 14.9967 119.367 14.5533 119.367 14.0533C119.367 13.56 119.267 13.12 119.067 12.7333C118.867 12.3467 118.59 12.0467 118.236 11.8333C117.889 11.6133 117.485 11.5033 117.024 11.5033C116.57 11.5033 116.166 11.6133 115.813 11.8333C115.465 12.0467 115.188 12.3467 114.981 12.7333C114.781 13.1133 114.681 13.5533 114.681 14.0533C114.681 14.5533 114.781 14.9967 114.981 15.3833C115.188 15.7633 115.469 16.0633 115.823 16.2833C116.183 16.5033 116.594 16.6133 117.054 16.6133Z" fill="#A6A6A6"/>
<path d="M126.71 17.5533L122.053 11.1933L122.984 10.5533L127.631 16.8933L126.71 17.5533ZM121.783 17.5533V10.5533H122.984L122.944 11.5533V17.5533H121.783ZM126.71 17.5533V10.5533H127.871V17.5533H126.71Z" fill="#A6A6A6"/>
<path d="M135.067 17.6733C134.373 17.6733 133.759 17.52 133.225 17.2133C132.691 16.9067 132.27 16.48 131.963 15.9333C131.663 15.3867 131.512 14.76 131.512 14.0533C131.512 13.3467 131.663 12.7233 131.963 12.1833C132.27 11.6367 132.687 11.21 133.215 10.9033C133.742 10.59 134.35 10.4333 135.037 10.4333C135.732 10.4333 136.342 10.59 136.87 10.9033C137.404 11.21 137.818 11.6367 138.111 12.1833C138.412 12.7233 138.562 13.3467 138.562 14.0533C138.562 14.76 138.412 15.3867 138.111 15.9333C137.818 16.48 137.407 16.9067 136.88 17.2133C136.359 17.52 135.755 17.6733 135.067 17.6733ZM135.067 16.6133C135.521 16.6133 135.922 16.5033 136.269 16.2833C136.616 16.0633 136.886 15.7633 137.08 15.3833C137.28 14.9967 137.38 14.5533 137.38 14.0533C137.38 13.56 137.28 13.12 137.08 12.7333C136.88 12.3467 136.603 12.0467 136.249 11.8333C135.902 11.6133 135.498 11.5033 135.037 11.5033C134.583 11.5033 134.179 11.6133 133.826 11.8333C133.478 12.0467 133.201 12.3467 132.994 12.7333C132.794 13.1133 132.694 13.5533 132.694 14.0533C132.694 14.5533 132.794 14.9967 132.994 15.3833C133.201 15.7633 133.482 16.0633 133.836 16.2833C134.196 16.5033 134.607 16.6133 135.067 16.6133Z" fill="#A6A6A6"/>
<path d="M144.723 17.5533L140.066 11.1933L140.997 10.5533L145.644 16.8933L144.723 17.5533ZM139.796 17.5533V10.5533H140.997L140.957 11.5533V17.5533H139.796ZM144.723 17.5533V10.5533H145.884V17.5533H144.723Z" fill="#A6A6A6"/>
<path d="M91.1595 29.5378C88.0278 29.5378 85.4695 31.8616 85.4695 35.0677C85.4695 38.2478 88.0278 40.5959 91.1595 40.5959C94.2978 40.5959 96.8562 38.2478 96.8562 35.0677C96.8562 31.8616 94.2978 29.5378 91.1595 29.5378ZM91.1595 38.4184C89.4412 38.4184 87.9628 37.0356 87.9628 35.0677C87.9628 33.0738 89.4412 31.7153 91.1595 31.7153C92.8778 31.7153 94.3628 33.0738 94.3628 35.0677C94.3628 37.0356 92.8778 38.4184 91.1595 38.4184ZM78.7445 29.5378C75.6062 29.5378 73.0545 31.8616 73.0545 35.0677C73.0545 38.2478 75.6062 40.5959 78.7445 40.5959C81.8812 40.5959 84.4345 38.2478 84.4345 35.0677C84.4345 31.8616 81.8812 29.5378 78.7445 29.5378ZM78.7445 38.4184C77.0245 38.4184 75.5412 37.0356 75.5412 35.0677C75.5412 33.0738 77.0245 31.7153 78.7445 31.7153C80.4628 31.7153 81.9412 33.0738 81.9412 35.0677C81.9412 37.0356 80.4628 38.4184 78.7445 38.4184ZM63.9712 31.2327V33.5824H69.7262C69.5578 34.8954 69.1078 35.8607 68.4178 36.5334C67.5778 37.3459 66.2695 38.2478 63.9712 38.2478C60.4295 38.2478 57.6562 35.4609 57.6562 32.0078C57.6562 28.5547 60.4295 25.7678 63.9712 25.7678C65.8862 25.7678 67.2795 26.4974 68.3078 27.4432L70.0062 25.7873C68.5678 24.4483 66.6545 23.4197 63.9712 23.4197C59.1145 23.4197 55.0328 27.2726 55.0328 32.0078C55.0328 36.7431 59.1145 40.5959 63.9712 40.5959C66.5962 40.5959 68.5678 39.7574 70.1178 38.1844C71.7062 36.6358 72.2012 34.4583 72.2012 32.7001C72.2012 32.1541 72.1545 31.6519 72.0712 31.2327H63.9712ZM124.381 33.0543C123.913 31.8177 122.468 29.5378 119.524 29.5378C116.608 29.5378 114.179 31.7787 114.179 35.0677C114.179 38.1649 116.583 40.5959 119.804 40.5959C122.409 40.5959 123.913 39.0473 124.531 38.1454L122.598 36.8893C121.953 37.8091 121.074 38.4184 119.804 38.4184C118.543 38.4184 117.638 37.8546 117.058 36.7431L124.643 33.6832L124.381 33.0543ZM116.648 34.8954C116.583 32.7634 118.346 31.6714 119.609 31.6714C120.599 31.6714 121.439 32.1541 121.719 32.8447L116.648 34.8954ZM110.483 40.2596H112.976V24.0096H110.483V40.2596ZM106.399 30.7696H106.316C105.756 30.1228 104.688 29.5378 103.334 29.5378C100.494 29.5378 97.8978 31.9688 97.8978 35.0856C97.8978 38.1844 100.494 40.5959 103.334 40.5959C104.688 40.5959 105.756 40.0061 106.316 39.3398H106.399V40.1328C106.399 42.2469 105.241 43.3828 103.373 43.3828C101.849 43.3828 100.904 42.3103 100.514 41.4084L98.3462 42.2908C98.9712 43.7566 100.626 45.5603 103.373 45.5603C106.296 45.5603 108.763 43.8833 108.763 39.8029V29.8742H106.399V30.7696ZM103.548 38.4184C101.829 38.4184 100.391 37.0161 100.391 35.0856C100.391 33.1372 101.829 31.7153 103.548 31.7153C105.241 31.7153 106.576 33.1372 106.576 35.0856C106.576 37.0161 105.241 38.4184 103.548 38.4184ZM136.054 24.0096H130.091V40.2596H132.578V34.1024H136.054C138.816 34.1024 141.524 32.1541 141.524 29.0552C141.524 25.9579 138.809 24.0096 136.054 24.0096ZM136.119 31.8421H132.578V26.2699H136.119C137.976 26.2699 139.036 27.7731 139.036 29.0552C139.036 30.3129 137.976 31.8421 136.119 31.8421ZM151.491 29.5069C149.694 29.5069 147.826 30.2804 147.058 31.9948L149.264 32.8967C149.739 31.9948 150.613 31.7023 151.536 31.7023C152.826 31.7023 154.134 32.4579 154.154 33.7921V33.9627C153.704 33.7092 152.741 33.3338 151.556 33.3338C149.179 33.3338 146.758 34.6094 146.758 36.9901C146.758 39.1676 148.704 40.5699 150.893 40.5699C152.566 40.5699 153.489 39.8338 154.069 38.9774H154.154V40.2336H156.556V34.0001C156.556 31.1189 154.349 29.5069 151.491 29.5069ZM151.191 38.4119C150.378 38.4119 149.244 38.0187 149.244 37.0356C149.244 35.7778 150.658 35.2952 151.881 35.2952C152.976 35.2952 153.489 35.5308 154.154 35.8412C153.959 37.3459 152.631 38.4119 151.191 38.4119ZM165.306 29.8628L162.448 36.9072H162.363L159.408 29.8628H156.726L161.166 39.7071L158.633 45.1849H161.231L168.073 29.8628H165.306ZM142.891 40.2596H145.384V24.0096H142.891V40.2596Z" fill="#A6A6A6"/>
<path d="M15.2641 9.85932C14.8652 10.2664 14.6344 10.9002 14.6344 11.721V40.9978C14.6344 41.8186 14.8652 42.4524 15.2641 42.8595L15.3625 42.9488L32.1889 26.5497V26.1625L15.3625 9.76334L15.2641 9.85932Z" fill="#A6A6A6" stroke="#191919" stroke-width="0.25"/>
<path d="M37.7923 32.0123L32.1898 26.5431V26.1559L37.7991 20.6868L37.9247 20.7579L44.5677 24.4432C46.4635 25.489 46.4635 27.21 44.5677 28.2625L37.9247 31.9411L37.7923 32.0123Z" fill="#A6A6A6" stroke="#191919" stroke-width="0.25"/>
<path d="M37.9247 31.9442L32.1897 26.3526L15.2649 42.8559C15.8945 43.5013 16.9214 43.5791 18.0891 42.9337L37.9247 31.9442Z" fill="#A6A6A6"/>
<path d="M37.9247 31.9442L32.1897 26.3526L15.2649 42.8559C15.8945 43.5013 16.9214 43.5791 18.0891 42.9337L37.9247 31.9442" stroke="#191919" stroke-width="0.25"/>
<path d="M37.9247 20.7628L18.0891 9.77328C16.9214 9.13453 15.8945 9.2123 15.2649 9.85767L32.1897 26.3544L37.9247 20.7628Z" fill="#A6A6A6" stroke="#191919" stroke-width="0.25"/>
<path d="M173.645 1.39685C176.732 1.39685 179.244 3.84573 179.244 6.85523V45.8552C179.244 48.8647 176.732 51.3136 173.645 51.3136H6.9788C3.89213 51.3136 1.38047 48.8647 1.38047 45.8552V6.85523C1.38047 3.84573 3.89213 1.39685 6.9788 1.39685H173.645ZM173.645 0.355227H6.9788C3.3138 0.355227 0.312134 3.28185 0.312134 6.85523V45.8552C0.312134 49.4286 3.3138 52.3552 6.9788 52.3552H173.645C177.31 52.3552 180.312 49.4286 180.312 45.8552V6.85523C180.312 3.28185 177.31 0.355227 173.645 0.355227Z" fill="#A6A6A6"/>
</g>
<defs>
<clipPath id="clip0_1215_8886">
<rect width="144" height="41.6" transform="matrix(1.25 0 0 -1.25 0.312134 52.3552)" fill="white"/>
</clipPath>
</defs>
</svg>
